# MagicaVoxel @ Ephtracy

# group
o 

# material
mtllib plastic_bag.mtl
usemtl palette

# normals
vn -1 0 0
vn 1 0 0
vn 0 0 1
vn 0 0 -1
vn 0 -1 0
vn 0 1 0

# texcoords
vt 0.962891 0.5
vt 0.966797 0.5
vt 0.974609 0.5
vt 0.978516 0.5

# verts
v 0 2 -0.9
v 0 2 -1.5
v 0 2.1 -0.9
v 0 2.1 -1.5
v 0.1 2 -0.6
v 0.1 2 -0.9
v 0.1 2 -1.5
v 0.1 2 -1.8
v 0.1 2.1 -0.6
v 0.1 2.1 -0.9
v 0.1 2.1 -1.5
v 0.1 2.1 -1.8
v 0.2 2 -0.5
v 0.2 2 -0.6
v 0.2 2 -1.8
v 0.2 2 -2
v 0.2 2.1 -0.5
v 0.2 2.1 -0.6
v 0.2 2.1 -1.8
v 0.2 2.1 -2
v 0.3 2 0
v 0.3 2 -0.5
v 0.3 2 -2
v 0.3 2 -2.1
v 0.3 2.1 0
v 0.3 2.1 -0.5
v 0.3 2.1 -2
v 0.3 2.1 -2.1
v 0.4 2 -2.1
v 0.4 2 -2.2
v 0.4 2.1 -2.1
v 0.4 2.1 -2.2
v 0.5 2 -2.2
v 0.5 2 -2.3
v 0.5 2.1 -2.2
v 0.5 2.1 -2.3
v 1.4 2 -0.8
v 1.4 2 -0.9
v 1.4 2.1 -0.8
v 1.4 2.1 -0.9
v 1.5 2 -0.4
v 1.5 2 -0.8
v 1.5 2.1 -0.4
v 1.5 2.1 -0.8
v 1.6 2 0
v 1.6 2 -0.4
v 1.6 2.1 0
v 1.6 2.1 -0.4
v 0.6 2 0
v 0.6 2 -0.1
v 0.6 2.1 0
v 0.6 2.1 -0.1
v 0.7 2 -0.1
v 0.7 2 -0.4
v 0.7 2.1 -0.1
v 0.7 2.1 -0.4
v 0.8 2 -0.4
v 0.8 2 -0.7
v 0.8 2.1 -0.4
v 0.8 2.1 -0.7
v 0.9 2 -0.7
v 0.9 2 -0.8
v 0.9 2.1 -0.7
v 0.9 2.1 -0.8
v 1 2 -0.8
v 1 2 -0.9
v 1 2.1 -0.8
v 1 2.1 -0.9
v 1.6 2 -2.2
v 1.6 2 -2.3
v 1.6 2.1 -2.2
v 1.6 2.1 -2.3
v 1.8 2 0
v 1.8 2 -0.1
v 1.8 2 -2
v 1.8 2 -2.2
v 1.8 2.1 0
v 1.8 2.1 -0.1
v 1.8 2.1 -2
v 1.8 2.1 -2.2
v 1.9 2 -0.1
v 1.9 2 -0.7
v 1.9 2 -1.9
v 1.9 2 -2
v 1.9 2.1 -0.1
v 1.9 2.1 -0.7
v 1.9 2.1 -1.9
v 1.9 2.1 -2
v 2 2 -0.7
v 2 2 -1.2
v 2 2 -1.6
v 2 2 -1.9
v 2 2.1 -0.7
v 2 2.1 -1.2
v 2 2.1 -1.6
v 2 2.1 -1.9
v 2.1 2 -1.2
v 2.1 2 -1.6
v 2.1 2.1 -1.2
v 2.1 2.1 -1.6
v 0.3 2 0
v 0.3 2.1 0
v 0.6 2 0
v 0.6 2.1 0
v 1.6 2 0
v 1.6 2.1 0
v 1.8 2 0
v 1.8 2.1 0
v 0.6 2 -0.1
v 0.6 2.1 -0.1
v 0.7 2 -0.1
v 0.7 2.1 -0.1
v 1.8 2 -0.1
v 1.8 2.1 -0.1
v 1.9 2 -0.1
v 1.9 2.1 -0.1
v 0.7 2 -0.4
v 0.7 2.1 -0.4
v 0.8 2 -0.4
v 0.8 2.1 -0.4
v 1.5 2 -0.4
v 1.5 2.1 -0.4
v 1.6 2 -0.4
v 1.6 2.1 -0.4
v 0.2 2 -0.5
v 0.2 2.1 -0.5
v 0.3 2 -0.5
v 0.3 2.1 -0.5
v 0.1 2 -0.6
v 0.1 2.1 -0.6
v 0.2 2 -0.6
v 0.2 2.1 -0.6
v 0.8 2 -0.7
v 0.8 2.1 -0.7
v 0.9 2 -0.7
v 0.9 2.1 -0.7
v 1.9 2 -0.7
v 1.9 2.1 -0.7
v 2 2 -0.7
v 2 2.1 -0.7
v 0.9 2 -0.8
v 0.9 2.1 -0.8
v 1 2 -0.8
v 1 2.1 -0.8
v 1.4 2 -0.8
v 1.4 2.1 -0.8
v 1.5 2 -0.8
v 1.5 2.1 -0.8
v 0 2 -0.9
v 0 2.1 -0.9
v 0.1 2 -0.9
v 0.1 2.1 -0.9
v 1 2 -0.9
v 1 2.1 -0.9
v 1.4 2 -0.9
v 1.4 2.1 -0.9
v 2 2 -1.2
v 2 2.1 -1.2
v 2.1 2 -1.2
v 2.1 2.1 -1.2
v 0 2 -1.5
v 0 2.1 -1.5
v 0.1 2 -1.5
v 0.1 2.1 -1.5
v 2 2 -1.6
v 2 2.1 -1.6
v 2.1 2 -1.6
v 2.1 2.1 -1.6
v 0.1 2 -1.8
v 0.1 2.1 -1.8
v 0.2 2 -1.8
v 0.2 2.1 -1.8
v 1.9 2 -1.9
v 1.9 2.1 -1.9
v 2 2 -1.9
v 2 2.1 -1.9
v 0.2 2 -2
v 0.2 2.1 -2
v 0.3 2 -2
v 0.3 2.1 -2
v 1.8 2 -2
v 1.8 2.1 -2
v 1.9 2 -2
v 1.9 2.1 -2
v 0.3 2 -2.1
v 0.3 2.1 -2.1
v 0.4 2 -2.1
v 0.4 2.1 -2.1
v 0.4 2 -2.2
v 0.4 2.1 -2.2
v 0.5 2 -2.2
v 0.5 2.1 -2.2
v 1.6 2 -2.2
v 1.6 2.1 -2.2
v 1.8 2 -2.2
v 1.8 2.1 -2.2
v 0.5 2 -2.3
v 0.5 2.1 -2.3
v 1.6 2 -2.3
v 1.6 2.1 -2.3
v 0.3 2 0
v 0.6 2 0
v 1.6 2 0
v 1.8 2 0
v 0.4 2 -0.1
v 0.5 2 -0.1
v 0.6 2 -0.1
v 0.7 2 -0.1
v 1.7 2 -0.1
v 1.8 2 -0.1
v 1.9 2 -0.1
v 0.4 2 -0.2
v 0.5 2 -0.2
v 0.6 2 -0.2
v 0.7 2 -0.4
v 0.8 2 -0.4
v 1.5 2 -0.4
v 1.6 2 -0.4
v 1.7 2 -0.4
v 0.2 2 -0.5
v 0.3 2 -0.5
v 0.6 2 -0.5
v 0.7 2 -0.5
v 0.1 2 -0.6
v 0.2 2 -0.6
v 0.4 2 -0.6
v 0.5 2 -0.6
v 0.6 2 -0.6
v 0.7 2 -0.6
v 0.8 2 -0.7
v 0.9 2 -0.7
v 1.9 2 -0.7
v 2 2 -0.7
v 0.5 2 -0.8
v 0.6 2 -0.8
v 0.7 2 -0.8
v 0.8 2 -0.8
v 0.9 2 -0.8
v 1 2 -0.8
v 1.4 2 -0.8
v 1.5 2 -0.8
v 0 2 -0.9
v 0.1 2 -0.9
v 0.3 2 -0.9
v 0.4 2 -0.9
v 0.6 2 -0.9
v 0.7 2 -0.9
v 0.8 2 -0.9
v 0.9 2 -0.9
v 1 2 -0.9
v 1.4 2 -0.9
v 1.8 2 -0.9
v 1.9 2 -0.9
v 0.1 2 -1
v 0.3 2 -1
v 0.4 2 -1
v 0.5 2 -1
v 0.7 2 -1
v 0.8 2 -1
v 0.9 2 -1
v 1.6 2 -1
v 1.7 2 -1
v 1.8 2 -1
v 0.2 2 -1.1
v 0.4 2 -1.1
v 0.8 2 -1.1
v 1.7 2 -1.1
v 2 2 -1.2
v 2.1 2 -1.2
v 0.2 2 -1.3
v 0.3 2 -1.3
v 1.8 2 -1.3
v 1.9 2 -1.3
v 0.1 2 -1.4
v 0.2 2 -1.4
v 1.9 2 -1.4
v 2 2 -1.4
v 0 2 -1.5
v 0.1 2 -1.5
v 1.9 2 -1.5
v 2 2 -1.5
v 0.3 2 -1.6
v 0.4 2 -1.6
v 2 2 -1.6
v 2.1 2 -1.6
v 0.2 2 -1.7
v 0.3 2 -1.7
v 1.7 2 -1.7
v 1.8 2 -1.7
v 0.1 2 -1.8
v 0.2 2 -1.8
v 0.4 2 -1.8
v 0.5 2 -1.8
v 1.6 2 -1.8
v 1.7 2 -1.8
v 1.8 2 -1.8
v 1.9 2 -1.8
v 0.3 2 -1.9
v 0.4 2 -1.9
v 0.5 2 -1.9
v 0.6 2 -1.9
v 1.7 2 -1.9
v 1.8 2 -1.9
v 1.9 2 -1.9
v 2 2 -1.9
v 0.2 2 -2
v 0.3 2 -2
v 0.4 2 -2
v 0.5 2 -2
v 0.6 2 -2
v 0.7 2 -2
v 1.4 2 -2
v 1.6 2 -2
v 1.8 2 -2
v 1.9 2 -2
v 0.3 2 -2.1
v 0.4 2 -2.1
v 0.5 2 -2.1
v 0.6 2 -2.1
v 0.7 2 -2.1
v 1.4 2 -2.1
v 1.5 2 -2.1
v 1.7 2 -2.1
v 0.4 2 -2.2
v 0.5 2 -2.2
v 0.6 2 -2.2
v 1.5 2 -2.2
v 1.6 2 -2.2
v 1.8 2 -2.2
v 0.5 2 -2.3
v 1.6 2 -2.3
v 0.3 2.1 0
v 0.6 2.1 0
v 1.6 2.1 0
v 1.8 2.1 0
v 0.4 2.1 -0.1
v 0.5 2.1 -0.1
v 0.6 2.1 -0.1
v 0.7 2.1 -0.1
v 1.7 2.1 -0.1
v 1.8 2.1 -0.1
v 1.9 2.1 -0.1
v 0.4 2.1 -0.2
v 0.5 2.1 -0.2
v 0.6 2.1 -0.2
v 0.7 2.1 -0.4
v 0.8 2.1 -0.4
v 1.5 2.1 -0.4
v 1.6 2.1 -0.4
v 1.7 2.1 -0.4
v 0.2 2.1 -0.5
v 0.3 2.1 -0.5
v 0.6 2.1 -0.5
v 0.7 2.1 -0.5
v 0.1 2.1 -0.6
v 0.2 2.1 -0.6
v 0.4 2.1 -0.6
v 0.5 2.1 -0.6
v 0.6 2.1 -0.6
v 0.7 2.1 -0.6
v 0.8 2.1 -0.7
v 0.9 2.1 -0.7
v 1.9 2.1 -0.7
v 2 2.1 -0.7
v 0.5 2.1 -0.8
v 0.6 2.1 -0.8
v 0.7 2.1 -0.8
v 0.8 2.1 -0.8
v 0.9 2.1 -0.8
v 1 2.1 -0.8
v 1.4 2.1 -0.8
v 1.5 2.1 -0.8
v 0 2.1 -0.9
v 0.1 2.1 -0.9
v 0.3 2.1 -0.9
v 0.4 2.1 -0.9
v 0.6 2.1 -0.9
v 0.7 2.1 -0.9
v 0.8 2.1 -0.9
v 0.9 2.1 -0.9
v 1 2.1 -0.9
v 1.4 2.1 -0.9
v 1.8 2.1 -0.9
v 1.9 2.1 -0.9
v 0.1 2.1 -1
v 0.3 2.1 -1
v 0.4 2.1 -1
v 0.5 2.1 -1
v 0.7 2.1 -1
v 0.8 2.1 -1
v 0.9 2.1 -1
v 1.6 2.1 -1
v 1.7 2.1 -1
v 1.8 2.1 -1
v 0.2 2.1 -1.1
v 0.4 2.1 -1.1
v 0.8 2.1 -1.1
v 1.7 2.1 -1.1
v 2 2.1 -1.2
v 2.1 2.1 -1.2
v 0.2 2.1 -1.3
v 0.3 2.1 -1.3
v 1.8 2.1 -1.3
v 1.9 2.1 -1.3
v 0.1 2.1 -1.4
v 0.2 2.1 -1.4
v 1.9 2.1 -1.4
v 2 2.1 -1.4
v 0 2.1 -1.5
v 0.1 2.1 -1.5
v 1.9 2.1 -1.5
v 2 2.1 -1.5
v 0.3 2.1 -1.6
v 0.4 2.1 -1.6
v 2 2.1 -1.6
v 2.1 2.1 -1.6
v 0.2 2.1 -1.7
v 0.3 2.1 -1.7
v 1.7 2.1 -1.7
v 1.8 2.1 -1.7
v 0.1 2.1 -1.8
v 0.2 2.1 -1.8
v 0.4 2.1 -1.8
v 0.5 2.1 -1.8
v 1.6 2.1 -1.8
v 1.7 2.1 -1.8
v 1.8 2.1 -1.8
v 1.9 2.1 -1.8
v 0.3 2.1 -1.9
v 0.4 2.1 -1.9
v 0.5 2.1 -1.9
v 0.6 2.1 -1.9
v 1.7 2.1 -1.9
v 1.8 2.1 -1.9
v 1.9 2.1 -1.9
v 2 2.1 -1.9
v 0.2 2.1 -2
v 0.3 2.1 -2
v 0.4 2.1 -2
v 0.5 2.1 -2
v 0.6 2.1 -2
v 0.7 2.1 -2
v 1.4 2.1 -2
v 1.6 2.1 -2
v 1.8 2.1 -2
v 1.9 2.1 -2
v 0.3 2.1 -2.1
v 0.4 2.1 -2.1
v 0.5 2.1 -2.1
v 0.6 2.1 -2.1
v 0.7 2.1 -2.1
v 1.4 2.1 -2.1
v 1.5 2.1 -2.1
v 1.7 2.1 -2.1
v 0.4 2.1 -2.2
v 0.5 2.1 -2.2
v 0.6 2.1 -2.2
v 1.5 2.1 -2.2
v 1.6 2.1 -2.2
v 1.8 2.1 -2.2
v 0.5 2.1 -2.3
v 1.6 2.1 -2.3

# faces
f 3/4/1 2/4/1 1/4/1
f 4/4/1 2/4/1 3/4/1
f 9/4/1 6/4/1 5/4/1
f 10/4/1 6/4/1 9/4/1
f 11/4/1 8/4/1 7/4/1
f 12/4/1 8/4/1 11/4/1
f 17/4/1 14/4/1 13/4/1
f 18/4/1 14/4/1 17/4/1
f 19/4/1 16/4/1 15/4/1
f 20/4/1 16/4/1 19/4/1
f 25/4/1 22/4/1 21/4/1
f 26/4/1 22/4/1 25/4/1
f 27/4/1 24/4/1 23/4/1
f 28/4/1 24/4/1 27/4/1
f 31/4/1 30/4/1 29/4/1
f 32/4/1 30/4/1 31/4/1
f 35/4/1 34/4/1 33/4/1
f 36/4/1 34/4/1 35/4/1
f 39/4/1 38/4/1 37/4/1
f 40/4/1 38/4/1 39/4/1
f 43/4/1 42/4/1 41/4/1
f 44/4/1 42/4/1 43/4/1
f 47/4/1 46/4/1 45/4/1
f 48/4/1 46/4/1 47/4/1
f 49/4/2 50/4/2 51/4/2
f 51/4/2 50/4/2 52/4/2
f 53/4/2 54/4/2 55/4/2
f 55/4/2 54/4/2 56/4/2
f 57/4/2 58/4/2 59/4/2
f 59/4/2 58/4/2 60/4/2
f 61/4/2 62/4/2 63/4/2
f 63/4/2 62/4/2 64/4/2
f 65/4/2 66/4/2 67/4/2
f 67/4/2 66/4/2 68/4/2
f 69/4/2 70/4/2 71/4/2
f 71/4/2 70/4/2 72/4/2
f 73/4/2 74/4/2 77/4/2
f 77/4/2 74/4/2 78/4/2
f 75/4/2 76/4/2 79/4/2
f 79/4/2 76/4/2 80/4/2
f 81/4/2 82/4/2 85/4/2
f 85/4/2 82/4/2 86/4/2
f 83/4/2 84/4/2 87/4/2
f 87/4/2 84/4/2 88/4/2
f 89/4/2 90/4/2 93/4/2
f 93/4/2 90/4/2 94/4/2
f 91/4/2 92/4/2 95/4/2
f 95/4/2 92/4/2 96/4/2
f 97/4/2 98/4/2 99/4/2
f 99/4/2 98/4/2 100/4/2
f 103/4/3 102/4/3 101/4/3
f 104/4/3 102/4/3 103/4/3
f 107/4/3 106/4/3 105/4/3
f 108/4/3 106/4/3 107/4/3
f 111/4/3 110/4/3 109/4/3
f 112/4/3 110/4/3 111/4/3
f 115/4/3 114/4/3 113/4/3
f 116/4/3 114/4/3 115/4/3
f 119/4/3 118/4/3 117/4/3
f 120/4/3 118/4/3 119/4/3
f 123/4/3 122/4/3 121/4/3
f 124/4/3 122/4/3 123/4/3
f 127/4/3 126/4/3 125/4/3
f 128/4/3 126/4/3 127/4/3
f 131/4/3 130/4/3 129/4/3
f 132/4/3 130/4/3 131/4/3
f 135/4/3 134/4/3 133/4/3
f 136/4/3 134/4/3 135/4/3
f 139/4/3 138/4/3 137/4/3
f 140/4/3 138/4/3 139/4/3
f 143/4/3 142/4/3 141/4/3
f 144/4/3 142/4/3 143/4/3
f 147/4/3 146/4/3 145/4/3
f 148/4/3 146/4/3 147/4/3
f 151/4/3 150/4/3 149/4/3
f 152/4/3 150/4/3 151/4/3
f 155/4/3 154/4/3 153/4/3
f 156/4/3 154/4/3 155/4/3
f 159/4/3 158/4/3 157/4/3
f 160/4/3 158/4/3 159/4/3
f 161/4/4 162/4/4 163/4/4
f 163/4/4 162/4/4 164/4/4
f 165/4/4 166/4/4 167/4/4
f 167/4/4 166/4/4 168/4/4
f 169/4/4 170/4/4 171/4/4
f 171/4/4 170/4/4 172/4/4
f 173/4/4 174/4/4 175/4/4
f 175/4/4 174/4/4 176/4/4
f 177/4/4 178/4/4 179/4/4
f 179/4/4 178/4/4 180/4/4
f 181/4/4 182/4/4 183/4/4
f 183/4/4 182/4/4 184/4/4
f 185/4/4 186/4/4 187/4/4
f 187/4/4 186/4/4 188/4/4
f 189/4/4 190/4/4 191/4/4
f 191/4/4 190/4/4 192/4/4
f 193/4/4 194/4/4 195/4/4
f 195/4/4 194/4/4 196/4/4
f 197/4/4 198/4/4 199/4/4
f 199/4/4 198/4/4 200/4/4
f 205/4/5 202/4/5 201/4/5
f 206/4/5 202/4/5 205/4/5
f 207/4/5 202/4/5 206/4/5
f 209/4/5 204/4/5 203/4/5
f 210/4/5 204/4/5 209/4/5
f 212/4/5 205/4/5 201/4/5
f 212/2/5 206/2/5 205/2/5
f 213/4/5 208/4/5 207/4/5
f 213/2/5 206/2/5 212/2/5
f 213/4/5 207/4/5 206/4/5
f 214/4/5 208/4/5 213/4/5
f 215/4/5 208/4/5 214/4/5
f 218/4/5 209/4/5 203/4/5
f 219/3/5 210/3/5 209/3/5
f 219/4/5 209/4/5 218/4/5
f 221/4/5 212/4/5 201/4/5
f 221/4/5 213/4/5 212/4/5
f 222/4/5 216/4/5 215/4/5
f 222/2/5 214/2/5 213/2/5
f 222/4/5 215/4/5 214/4/5
f 223/4/5 216/4/5 222/4/5
f 225/4/5 221/4/5 220/4/5
f 226/4/5 213/4/5 221/4/5
f 226/4/5 221/4/5 225/4/5
f 227/2/5 222/2/5 213/2/5
f 227/4/5 213/4/5 226/4/5
f 227/2/5 223/2/5 222/2/5
f 228/2/5 223/2/5 227/2/5
f 229/4/5 216/4/5 223/4/5
f 229/2/5 223/2/5 228/2/5
f 230/4/5 216/4/5 229/4/5
f 232/4/5 211/4/5 210/4/5
f 234/2/5 228/2/5 227/2/5
f 234/2/5 227/2/5 226/2/5
f 235/3/5 229/3/5 228/3/5
f 235/2/5 228/2/5 234/2/5
f 236/4/5 231/4/5 230/4/5
f 236/3/5 229/3/5 235/3/5
f 236/4/5 230/4/5 229/4/5
f 237/4/5 231/4/5 236/4/5
f 238/4/5 231/4/5 237/4/5
f 241/4/5 218/4/5 217/4/5
f 243/4/5 225/4/5 224/4/5
f 243/4/5 226/4/5 225/4/5
f 244/4/5 226/4/5 243/4/5
f 245/2/5 234/2/5 226/2/5
f 245/4/5 226/4/5 244/4/5
f 246/1/5 235/1/5 234/1/5
f 246/3/5 236/3/5 235/3/5
f 246/3/5 237/3/5 236/3/5
f 247/3/5 237/3/5 246/3/5
f 248/4/5 239/4/5 238/4/5
f 248/3/5 237/3/5 247/3/5
f 248/4/5 238/4/5 237/4/5
f 249/4/5 239/4/5 248/4/5
f 250/4/5 239/4/5 249/4/5
f 251/4/5 241/4/5 240/4/5
f 252/3/5 210/3/5 219/3/5
f 252/4/5 233/4/5 232/4/5
f 252/4/5 232/4/5 210/4/5
f 253/4/5 233/4/5 252/4/5
f 254/4/5 244/4/5 243/4/5
f 254/4/5 243/4/5 242/4/5
f 255/2/5 245/2/5 244/2/5
f 255/4/5 244/4/5 254/4/5
f 256/2/5 234/2/5 245/2/5
f 256/2/5 245/2/5 255/2/5
f 257/1/5 247/1/5 246/1/5
f 257/2/5 234/2/5 256/2/5
f 257/1/5 246/1/5 234/1/5
f 258/3/5 248/3/5 247/3/5
f 258/1/5 247/1/5 257/1/5
f 258/3/5 249/3/5 248/3/5
f 259/3/5 249/3/5 258/3/5
f 260/4/5 251/4/5 250/4/5
f 260/3/5 249/3/5 259/3/5
f 260/4/5 250/4/5 249/4/5
f 261/4/5 241/4/5 251/4/5
f 261/4/5 251/4/5 260/4/5
f 261/2/5 219/2/5 218/2/5
f 261/4/5 218/4/5 241/4/5
f 262/3/5 253/3/5 252/3/5
f 262/2/5 219/2/5 261/2/5
f 262/3/5 252/3/5 219/3/5
f 263/3/5 253/3/5 262/3/5
f 264/2/5 255/2/5 254/2/5
f 264/2/5 256/2/5 255/2/5
f 265/1/5 259/1/5 258/1/5
f 265/2/5 256/2/5 264/2/5
f 265/1/5 257/1/5 256/1/5
f 265/1/5 258/1/5 257/1/5
f 266/3/5 260/3/5 259/3/5
f 266/1/5 259/1/5 265/1/5
f 266/3/5 262/3/5 261/3/5
f 266/3/5 261/3/5 260/3/5
f 267/1/5 263/1/5 262/1/5
f 267/3/5 262/3/5 266/3/5
f 268/4/5 233/4/5 253/4/5
f 270/2/5 264/2/5 254/2/5
f 270/1/5 266/1/5 265/1/5
f 270/1/5 265/1/5 264/1/5
f 270/1/5 267/1/5 266/1/5
f 271/1/5 267/1/5 270/1/5
f 272/3/5 253/3/5 263/3/5
f 272/1/5 267/1/5 271/1/5
f 272/1/5 263/1/5 267/1/5
f 273/4/5 269/4/5 268/4/5
f 273/3/5 253/3/5 272/3/5
f 273/4/5 268/4/5 253/4/5
f 274/2/5 271/2/5 270/2/5
f 274/2/5 270/2/5 254/2/5
f 274/4/5 254/4/5 242/4/5
f 275/2/5 271/2/5 274/2/5
f 276/4/5 269/4/5 273/4/5
f 276/2/5 273/2/5 272/2/5
f 277/4/5 269/4/5 276/4/5
f 278/4/5 275/4/5 274/4/5
f 278/4/5 274/4/5 242/4/5
f 279/4/5 275/4/5 278/4/5
f 280/2/5 277/2/5 276/2/5
f 280/2/5 276/2/5 272/2/5
f 281/4/5 269/4/5 277/4/5
f 281/2/5 277/2/5 280/2/5
f 282/1/5 272/1/5 271/1/5
f 282/2/5 271/2/5 275/2/5
f 283/1/5 272/1/5 282/1/5
f 284/4/5 269/4/5 281/4/5
f 284/4/5 281/4/5 280/4/5
f 285/4/5 269/4/5 284/4/5
f 286/2/5 283/2/5 282/2/5
f 286/4/5 275/4/5 279/4/5
f 286/2/5 282/2/5 275/2/5
f 287/2/5 283/2/5 286/2/5
f 288/1/5 272/1/5 283/1/5
f 289/2/5 280/2/5 272/2/5
f 289/1/5 272/1/5 288/1/5
f 290/4/5 286/4/5 279/4/5
f 290/4/5 287/4/5 286/4/5
f 291/4/5 287/4/5 290/4/5
f 292/2/5 283/2/5 287/2/5
f 292/1/5 288/1/5 283/1/5
f 293/1/5 288/1/5 292/1/5
f 294/1/5 288/1/5 293/1/5
f 295/2/5 289/2/5 288/2/5
f 295/1/5 288/1/5 294/1/5
f 296/2/5 280/2/5 289/2/5
f 296/2/5 289/2/5 295/2/5
f 297/4/5 284/4/5 280/4/5
f 297/2/5 280/2/5 296/2/5
f 298/4/5 287/4/5 291/4/5
f 298/2/5 292/2/5 287/2/5
f 298/2/5 293/2/5 292/2/5
f 299/2/5 293/2/5 298/2/5
f 300/1/5 294/1/5 293/1/5
f 300/2/5 293/2/5 299/2/5
f 301/1/5 294/1/5 300/1/5
f 302/2/5 296/2/5 295/2/5
f 302/2/5 295/2/5 294/2/5
f 303/4/5 297/4/5 296/4/5
f 303/2/5 296/2/5 302/2/5
f 304/4/5 284/4/5 297/4/5
f 304/4/5 297/4/5 303/4/5
f 305/4/5 284/4/5 304/4/5
f 306/4/5 299/4/5 298/4/5
f 306/4/5 298/4/5 291/4/5
f 307/4/5 299/4/5 306/4/5
f 308/2/5 301/2/5 300/2/5
f 308/4/5 299/4/5 307/4/5
f 308/2/5 300/2/5 299/2/5
f 309/2/5 301/2/5 308/2/5
f 310/1/5 294/1/5 301/1/5
f 310/2/5 301/2/5 309/2/5
f 311/1/5 294/1/5 310/1/5
f 312/1/5 294/1/5 311/1/5
f 313/2/5 302/2/5 294/2/5
f 313/1/5 294/1/5 312/1/5
f 314/4/5 303/4/5 302/4/5
f 314/4/5 304/4/5 303/4/5
f 315/4/5 304/4/5 314/4/5
f 316/4/5 309/4/5 308/4/5
f 316/4/5 308/4/5 307/4/5
f 317/4/5 309/4/5 316/4/5
f 318/2/5 311/2/5 310/2/5
f 318/4/5 309/4/5 317/4/5
f 318/2/5 310/2/5 309/2/5
f 319/2/5 311/2/5 318/2/5
f 320/1/5 312/1/5 311/1/5
f 320/2/5 311/2/5 319/2/5
f 321/2/5 313/2/5 312/2/5
f 321/1/5 312/1/5 320/1/5
f 322/2/5 313/2/5 321/2/5
f 323/2/5 302/2/5 313/2/5
f 323/2/5 313/2/5 322/2/5
f 323/4/5 314/4/5 302/4/5
f 324/4/5 319/4/5 318/4/5
f 324/4/5 318/4/5 317/4/5
f 325/4/5 319/4/5 324/4/5
f 326/2/5 322/2/5 321/2/5
f 326/4/5 319/4/5 325/4/5
f 326/2/5 321/2/5 320/2/5
f 326/2/5 320/2/5 319/2/5
f 327/4/5 323/4/5 322/4/5
f 327/2/5 322/2/5 326/2/5
f 328/4/5 323/4/5 327/4/5
f 329/4/5 314/4/5 323/4/5
f 329/4/5 323/4/5 328/4/5
f 330/4/5 328/4/5 327/4/5
f 330/4/5 327/4/5 326/4/5
f 330/4/5 326/4/5 325/4/5
f 331/4/5 328/4/5 330/4/5
f 332/4/6 333/4/6 336/4/6
f 336/4/6 333/4/6 337/4/6
f 337/4/6 333/4/6 338/4/6
f 334/4/6 335/4/6 340/4/6
f 340/4/6 335/4/6 341/4/6
f 332/4/6 336/4/6 343/4/6
f 336/2/6 337/2/6 343/2/6
f 338/4/6 339/4/6 344/4/6
f 343/2/6 337/2/6 344/2/6
f 337/4/6 338/4/6 344/4/6
f 344/4/6 339/4/6 345/4/6
f 345/4/6 339/4/6 346/4/6
f 334/4/6 340/4/6 349/4/6
f 340/3/6 341/3/6 350/3/6
f 349/4/6 340/4/6 350/4/6
f 332/4/6 343/4/6 352/4/6
f 343/4/6 344/4/6 352/4/6
f 346/4/6 347/4/6 353/4/6
f 344/2/6 345/2/6 353/2/6
f 345/4/6 346/4/6 353/4/6
f 353/4/6 347/4/6 354/4/6
f 351/4/6 352/4/6 356/4/6
f 352/4/6 344/4/6 357/4/6
f 356/4/6 352/4/6 357/4/6
f 344/2/6 353/2/6 358/2/6
f 357/4/6 344/4/6 358/4/6
f 353/2/6 354/2/6 358/2/6
f 358/2/6 354/2/6 359/2/6
f 354/4/6 347/4/6 360/4/6
f 359/2/6 354/2/6 360/2/6
f 360/4/6 347/4/6 361/4/6
f 341/4/6 342/4/6 363/4/6
f 358/2/6 359/2/6 365/2/6
f 357/2/6 358/2/6 365/2/6
f 359/3/6 360/3/6 366/3/6
f 365/2/6 359/2/6 366/2/6
f 361/4/6 362/4/6 367/4/6
f 366/3/6 360/3/6 367/3/6
f 360/4/6 361/4/6 367/4/6
f 367/4/6 362/4/6 368/4/6
f 368/4/6 362/4/6 369/4/6
f 348/4/6 349/4/6 372/4/6
f 355/4/6 356/4/6 374/4/6
f 356/4/6 357/4/6 374/4/6
f 374/4/6 357/4/6 375/4/6
f 357/2/6 365/2/6 376/2/6
f 375/4/6 357/4/6 376/4/6
f 365/1/6 366/1/6 377/1/6
f 366/3/6 367/3/6 377/3/6
f 367/3/6 368/3/6 377/3/6
f 377/3/6 368/3/6 378/3/6
f 369/4/6 370/4/6 379/4/6
f 378/3/6 368/3/6 379/3/6
f 368/4/6 369/4/6 379/4/6
f 379/4/6 370/4/6 380/4/6
f 380/4/6 370/4/6 381/4/6
f 371/4/6 372/4/6 382/4/6
f 350/3/6 341/3/6 383/3/6
f 363/4/6 364/4/6 383/4/6
f 341/4/6 363/4/6 383/4/6
f 383/4/6 364/4/6 384/4/6
f 374/4/6 375/4/6 385/4/6
f 373/4/6 374/4/6 385/4/6
f 375/2/6 376/2/6 386/2/6
f 385/4/6 375/4/6 386/4/6
f 376/2/6 365/2/6 387/2/6
f 386/2/6 376/2/6 387/2/6
f 377/1/6 378/1/6 388/1/6
f 387/2/6 365/2/6 388/2/6
f 365/1/6 377/1/6 388/1/6
f 378/3/6 379/3/6 389/3/6
f 388/1/6 378/1/6 389/1/6
f 379/3/6 380/3/6 389/3/6
f 389/3/6 380/3/6 390/3/6
f 381/4/6 382/4/6 391/4/6
f 390/3/6 380/3/6 391/3/6
f 380/4/6 381/4/6 391/4/6
f 382/4/6 372/4/6 392/4/6
f 391/4/6 382/4/6 392/4/6
f 349/2/6 350/2/6 392/2/6
f 372/4/6 349/4/6 392/4/6
f 383/3/6 384/3/6 393/3/6
f 392/2/6 350/2/6 393/2/6
f 350/3/6 383/3/6 393/3/6
f 393/3/6 384/3/6 394/3/6
f 385/2/6 386/2/6 395/2/6
f 386/2/6 387/2/6 395/2/6
f 389/1/6 390/1/6 396/1/6
f 395/2/6 387/2/6 396/2/6
f 387/1/6 388/1/6 396/1/6
f 388/1/6 389/1/6 396/1/6
f 390/3/6 391/3/6 397/3/6
f 396/1/6 390/1/6 397/1/6
f 392/3/6 393/3/6 397/3/6
f 391/3/6 392/3/6 397/3/6
f 393/1/6 394/1/6 398/1/6
f 397/3/6 393/3/6 398/3/6
f 384/4/6 364/4/6 399/4/6
f 385/2/6 395/2/6 401/2/6
f 396/1/6 397/1/6 401/1/6
f 395/1/6 396/1/6 401/1/6
f 397/1/6 398/1/6 401/1/6
f 401/1/6 398/1/6 402/1/6
f 394/3/6 384/3/6 403/3/6
f 402/1/6 398/1/6 403/1/6
f 398/1/6 394/1/6 403/1/6
f 399/4/6 400/4/6 404/4/6
f 403/3/6 384/3/6 404/3/6
f 384/4/6 399/4/6 404/4/6
f 401/2/6 402/2/6 405/2/6
f 385/2/6 401/2/6 405/2/6
f 373/4/6 385/4/6 405/4/6
f 405/2/6 402/2/6 406/2/6
f 404/4/6 400/4/6 407/4/6
f 403/2/6 404/2/6 407/2/6
f 407/4/6 400/4/6 408/4/6
f 405/4/6 406/4/6 409/4/6
f 373/4/6 405/4/6 409/4/6
f 409/4/6 406/4/6 410/4/6
f 407/2/6 408/2/6 411/2/6
f 403/2/6 407/2/6 411/2/6
f 408/4/6 400/4/6 412/4/6
f 411/2/6 408/2/6 412/2/6
f 402/1/6 403/1/6 413/1/6
f 406/2/6 402/2/6 413/2/6
f 413/1/6 403/1/6 414/1/6
f 412/4/6 400/4/6 415/4/6
f 411/4/6 412/4/6 415/4/6
f 415/4/6 400/4/6 416/4/6
f 413/2/6 414/2/6 417/2/6
f 410/4/6 406/4/6 417/4/6
f 406/2/6 413/2/6 417/2/6
f 417/2/6 414/2/6 418/2/6
f 414/1/6 403/1/6 419/1/6
f 403/2/6 411/2/6 420/2/6
f 419/1/6 403/1/6 420/1/6
f 410/4/6 417/4/6 421/4/6
f 417/4/6 418/4/6 421/4/6
f 421/4/6 418/4/6 422/4/6
f 418/2/6 414/2/6 423/2/6
f 414/1/6 419/1/6 423/1/6
f 423/1/6 419/1/6 424/1/6
f 424/1/6 419/1/6 425/1/6
f 419/2/6 420/2/6 426/2/6
f 425/1/6 419/1/6 426/1/6
f 420/2/6 411/2/6 427/2/6
f 426/2/6 420/2/6 427/2/6
f 411/4/6 415/4/6 428/4/6
f 427/2/6 411/2/6 428/2/6
f 422/4/6 418/4/6 429/4/6
f 418/2/6 423/2/6 429/2/6
f 423/2/6 424/2/6 429/2/6
f 429/2/6 424/2/6 430/2/6
f 424/1/6 425/1/6 431/1/6
f 430/2/6 424/2/6 431/2/6
f 431/1/6 425/1/6 432/1/6
f 426/2/6 427/2/6 433/2/6
f 425/2/6 426/2/6 433/2/6
f 427/4/6 428/4/6 434/4/6
f 433/2/6 427/2/6 434/2/6
f 428/4/6 415/4/6 435/4/6
f 434/4/6 428/4/6 435/4/6
f 435/4/6 415/4/6 436/4/6
f 429/4/6 430/4/6 437/4/6
f 422/4/6 429/4/6 437/4/6
f 437/4/6 430/4/6 438/4/6
f 431/2/6 432/2/6 439/2/6
f 438/4/6 430/4/6 439/4/6
f 430/2/6 431/2/6 439/2/6
f 439/2/6 432/2/6 440/2/6
f 432/1/6 425/1/6 441/1/6
f 440/2/6 432/2/6 441/2/6
f 441/1/6 425/1/6 442/1/6
f 442/1/6 425/1/6 443/1/6
f 425/2/6 433/2/6 444/2/6
f 443/1/6 425/1/6 444/1/6
f 433/4/6 434/4/6 445/4/6
f 434/4/6 435/4/6 445/4/6
f 445/4/6 435/4/6 446/4/6
f 439/4/6 440/4/6 447/4/6
f 438/4/6 439/4/6 447/4/6
f 447/4/6 440/4/6 448/4/6
f 441/2/6 442/2/6 449/2/6
f 448/4/6 440/4/6 449/4/6
f 440/2/6 441/2/6 449/2/6
f 449/2/6 442/2/6 450/2/6
f 442/1/6 443/1/6 451/1/6
f 450/2/6 442/2/6 451/2/6
f 443/2/6 444/2/6 452/2/6
f 451/1/6 443/1/6 452/1/6
f 452/2/6 444/2/6 453/2/6
f 444/2/6 433/2/6 454/2/6
f 453/2/6 444/2/6 454/2/6
f 433/4/6 445/4/6 454/4/6
f 449/4/6 450/4/6 455/4/6
f 448/4/6 449/4/6 455/4/6
f 455/4/6 450/4/6 456/4/6
f 452/2/6 453/2/6 457/2/6
f 456/4/6 450/4/6 457/4/6
f 451/2/6 452/2/6 457/2/6
f 450/2/6 451/2/6 457/2/6
f 453/4/6 454/4/6 458/4/6
f 457/2/6 453/2/6 458/2/6
f 458/4/6 454/4/6 459/4/6
f 454/4/6 445/4/6 460/4/6
f 459/4/6 454/4/6 460/4/6
f 458/4/6 459/4/6 461/4/6
f 457/4/6 458/4/6 461/4/6
f 456/4/6 457/4/6 461/4/6
f 461/4/6 459/4/6 462/4/6
